<?xml version="1.0" encoding="UTF-8" standalone="no"?>
<svg width="400px" height="400px" viewBox="0 0 400 400" version="1.1" xmlns="http://www.w3.org/2000/svg" xmlns:xlink="http://www.w3.org/1999/xlink" xmlns:sketch="http://www.bohemiancoding.com/sketch/ns">
    <!-- Generator: Sketch 3.5.2 (25235) - http://www.bohemiancoding.com/sketch -->
    <title>High Hat</title>
    <desc>Created with Sketch.</desc>
    <defs></defs>
    <g id="Page-1" stroke="none" stroke-width="1" fill="none" fill-rule="evenodd" sketch:type="MSPage">
        <g id="High-Hat" sketch:type="MSArtboardGroup">
            <rect id="Rectangle-11" fill="#D8D8D8" sketch:type="MSShapeGroup" x="196" y="47" width="7" height="300" rx="8"></rect>
            <rect id="Rectangle-11" fill="#D8D8D8" sketch:type="MSShapeGroup" transform="translate(213.840600, 327.072240) rotate(-37.000000) translate(-213.840600, -327.072240) " x="210.3406" y="302.07224" width="7" height="50" rx="8"></rect>
            <rect id="Rectangle-11" fill="#D8D8D8" sketch:type="MSShapeGroup" transform="translate(183.840600, 327.072240) scale(-1, 1) rotate(-37.000000) translate(-183.840600, -327.072240) " x="180.3406" y="302.07224" width="7" height="50" rx="8"></rect>
            <path d="M136.582728,100.994504 C131.061875,100.99778 130.911734,99.8239862 136.237487,98.3754524 L190.469819,83.6249832 C195.800001,82.175245 204.439812,82.1823678 209.761328,83.6392362 L263.219311,98.2743982 C268.543535,99.7320082 268.382063,100.916292 262.863282,100.919566 L136.582728,100.994504 Z" id="Path-1" fill="#F8D21C" sketch:type="MSShapeGroup" transform="translate(199.929836, 91.000000) scale(1, -1) translate(-199.929836, -91.000000) "></path>
            <path d="M136.582728,80.9945036 C131.061875,80.9977798 130.911734,79.8239862 136.237487,78.3754524 L190.469819,63.6249832 C195.800001,62.175245 204.439812,62.1823678 209.761328,63.6392362 L263.219311,78.2743982 C268.543535,79.7320082 268.382063,80.9162916 262.863282,80.9195665 L136.582728,80.9945036 Z" id="Path-1" fill="#FBEA15" sketch:type="MSShapeGroup"></path>
        </g>
    </g>
</svg>