<?xml version="1.0" encoding="UTF-8" standalone="no"?>
<svg width="400px" height="400px" viewBox="0 0 400 400" version="1.1" xmlns="http://www.w3.org/2000/svg" xmlns:xlink="http://www.w3.org/1999/xlink" xmlns:sketch="http://www.bohemiancoding.com/sketch/ns">
    <!-- Generator: Sketch 3.5.2 (25235) - http://www.bohemiancoding.com/sketch -->
    <title>Snare Drum Thumbnail</title>
    <desc>Created with Sketch.</desc>
    <defs></defs>
    <g id="Page-1" stroke="none" stroke-width="1" fill="none" fill-rule="evenodd" sketch:type="MSPage">
        <g id="Snare-Drum-Thumbnail" sketch:type="MSArtboardGroup">
            <path d="M53,135.934345 C53,131.518126 56.401227,126.801757 60.6161515,125.513207 C60.6161515,125.513207 107.662708,108 201.396521,108 C295.130334,108 342.17689,125.513207 342.17689,125.513207 C346.383174,126.852424 349.793042,131.513213 349.793042,135.934345 L349.793042,265.302619 C349.793042,269.718837 346.409942,274.452801 342.182596,275.756994 C342.182596,275.756994 298.705892,292.553004 201.396521,292.553004 C104.087149,292.553004 60.610445,275.756994 60.610445,275.756994 C56.4073123,274.39942 53,269.723751 53,265.302619 L53,135.934345 Z" id="Rectangle-14" fill="#4A4A4A" sketch:type="MSShapeGroup"></path>
            <ellipse id="Oval-4" fill="#D8D8D8" sketch:type="MSShapeGroup" cx="201.834245" cy="142.963901" rx="133.834245" ry="24.9639007"></ellipse>
            <path d="M158.5,183.693442 L158.5,275.227744" id="Line" stroke="#979797" stroke-width="5" stroke-linecap="square" sketch:type="MSShapeGroup"></path>
            <path d="M249.5,181.693442 L249.5,273.227744" id="Line-Copy" stroke="#979797" stroke-width="5" stroke-linecap="square" sketch:type="MSShapeGroup"></path>
            <path d="M340.5,165.693442 L340.5,257.227744" id="Line-Copy-2" stroke="#979797" stroke-width="5" stroke-linecap="square" sketch:type="MSShapeGroup"></path>
            <path d="M65.5,165.693442 L65.5,264.162161" id="Line" stroke="#979797" stroke-width="5" stroke-linecap="square" sketch:type="MSShapeGroup"></path>
            <path d="M48,151.871103 C48,150.492955 48.7834377,150.173358 49.8316436,151.073605 C49.8316436,151.073605 69.8115879,176.517825 201.958741,176.517825 C334.105894,176.517825 350.342982,151.188184 350.342982,151.188184 C351.291441,150.187202 352.060318,150.494638 352.060318,151.871103 L352.060318,157.523585 C352.060318,158.901732 351.18647,160.70983 350.050202,161.50018 C350.050202,161.50018 324.317572,185.354101 201.958741,185.452635 C82.666327,185.548699 50.1022507,161.337522 50.1022507,161.337522 C48.9412097,160.60929 48,158.90005 48,157.523585 L48,151.871103 Z" id="Rectangle-18" fill="#D8D8D8" sketch:type="MSShapeGroup"></path>
            <path d="M48,251.871103 C48,250.492955 48.7834377,250.173358 49.8316436,251.073605 C49.8316436,251.073605 69.8115879,276.517825 201.958741,276.517825 C334.105894,276.517825 350.342982,251.188184 350.342982,251.188184 C351.291441,250.187202 352.060318,250.494638 352.060318,251.871103 L352.060318,257.523585 C352.060318,258.901732 351.18647,260.70983 350.050202,261.50018 C350.050202,261.50018 324.317572,285.354101 201.958741,285.452635 C82.666327,285.548699 50.1022507,261.337522 50.1022507,261.337522 C48.9412097,260.60929 48,258.90005 48,257.523585 L48,251.871103 Z" id="Rectangle-18" fill="#D8D8D8" sketch:type="MSShapeGroup"></path>
        </g>
    </g>
</svg>